# AST/ASF file generated using VICON BodyLanguage
# -----------------------------------------------
:version 1.10
:name VICON
:units
  mass 1.0
  length 0.45
  angle deg
:documentation
   .ast/.asf automatically generated from VICON data using
   VICON BodyBuilder and BodyLanguage model FoxedUp or BRILLIANT.MOD
:root
   order TX TY TZ RX RY RZ
   axis XYZ
   position 0 0 0  
   orientation 0 0 0 
:bonedata
  begin
     id 1 
     name lhipjoint
     direction 0.714689 -0.624256 0.315473 
     length 2.45343 
     axis 0 0 0  XYZ
  end
  begin
     id 2 
     name lfemur
     direction 0.34202 -0.939693 0  
     length 6.59069  
     axis 0 0 20  XYZ
    dof rx ry rz
    limits (-160.0 20.0)
           (-70.0 70.0)
           (-60.0 70.0)
  end
  begin
     id 3 
     name ltibia
     direction 0.34202 -0.939693 0   
     length 6.73476   
     axis 0 0 20   XYZ
    dof rx
    limits (-10.0 170.0)
  end
  begin
     id 4 
     name lfoot
     direction 0.0718085 -0.197292 0.977711   
     length 1.52607   
     axis -90 7.62852e-016 20   XYZ
    dof rx rz
    limits (-45.0 90.0)
           (-70.0 20.0)
  end
  begin
     id 5 
     name ltoes
     direction 1.53553e-011 -4.22024e-011 1   
     length 0.777832   
     axis -90 7.62852e-016 20   XYZ
    dof rx
    limits (-90.0 20.0)
  end
  begin
     id 6 
     name rhipjoint
     direction -0.727419 -0.612432 0.309497   
     length 2.50079  
     axis 0 0 0  XYZ 
  end
  begin
     id 7 
     name rfemur
     direction -0.34202 -0.939693 0   
     length 6.51665   
     axis 0 0 -20   XYZ
    dof rx ry rz
    limits (-160.0 20.0)
           (-70.0 70.0)
           (-70.0 60.0)
  end
  begin
     id 8 
     name rtibia
     direction -0.34202 -0.939693 0   
     length 6.48919   
     axis 0 0 -20   XYZ
    dof rx
    limits (-10.0 170.0)
 end
 begin
     id 9 
     name rfoot
     direction -0.112205 -0.308282 0.944655   
     length 1.68717  
     axis -90 -7.62852e-016 -20   XYZ
    dof rx rz
    limits (-45.0 90.0)
           (-20.0 70.0)
  end
  begin
     id 10 
     name rtoes
     direction -1.53583e-011 -4.21993e-011 1   
     length 0.846859   
     axis -90 -7.62852e-016 -20   XYZ
    dof rx
    limits (-90.0 20.0)
  end
  begin
     id 11 
     name lowerback
     direction -0.00119603 0.996364 -0.0851956   
     length 1.67242   
     axis 0 0 0   XYZ
    dof rx ry rz
    limits (-20.0 45.0)
           (-30.0 30.0)
           (-30.0 30.0)
  end
  begin
     id 12 
     name upperback
     direction -0.00531001 0.998318 0.0577248   
     length 1.64819   
     axis 0 0 0   XYZ
    dof rx ry rz
    limits (-20.0 45.0)
           (-30.0 30.0)
           (-30.0 30.0)
  end
  begin
     id 13 
     name thorax
     direction -0.00653676 0.995132 0.0983291   
     length 1.67429   
     axis 0 0 0   XYZ
    dof rx ry rz
    limits (-20.0 45.0)
           (-30.0 30.0)
           (-30.0 30.0)
  end
  begin
     id 14 
     name lowerneck
     direction 0.0141424 0.999886 0.00525412   
     length 1.59623   
     axis 0 0 0   XYZ
    dof rx ry rz
    limits (-20.0 45.0)
           (-30.0 30.0)
           (-30.0 30.0)
  end
  begin
     id 15 
     name upperneck
     direction -0.0640064 0.987178 -0.146232   
     length 1.59576   
     axis 0 0 0   XYZ
    dof rx ry rz
    limits (-20.0 45.0)
           (-30.0 30.0)
           (-30.0 30.0)
  end
  begin
     id 16
     name head
     direction -0.0222942 0.998496 -0.0500859  
     length 1.60959  
     axis 0 0 0   XYZ
    dof rx ry rz
    limits (-20.0 45.0)
           (-30.0 30.0)
           (-30.0 30.0)
  end
  begin
     id 17 
     name lclavicle
     direction 0.908549 0.392612 0.142806  
     length 2.80649  
     axis 0 0 0   XYZ
    dof ry rz
    limits (-20.0 10.0)
           (0.0 20.0)
  end
  begin
     id 18 
     name lhumerus
     direction 1 -4.48968e-011 1.08832e-028   
     length 4.2884   
     axis -180 -30 -90   XYZ
    dof rx ry rz
    limits (-60.0 90.0)
           (-90.0 90.0)
           (-90.0 90.0)
  end
  begin
     id 19
     name lradius
     direction 1 -4.48952e-011 -3.02642e-028   
     length 3.06552   
     axis -180 -30 -90   XYZ
    dof rx
    limits (-10.0 170.0)
  end
  begin
     id 20
     name lwrist
     direction 1 -4.49014e-011 1.58672e-027   
     length 1.53276   
     axis -1.65735e-015 90 90   XYZ
    dof ry
    limits (-180.0 0.0)
 end
  begin
     id 21 
     name lhand
     direction 1 -4.48928e-011 3.17344e-027   
     length 0.753045   
     axis -2.02492e-015 90 90   XYZ
    dof rx rz
    limits (-90.0 90.0)
           (-45.0 45.0)
  end
  begin
     id 22 
     name lfingers
     direction 1 -4.48958e-011 6.34687e-027   
     length 0.607124   
     axis -4.04985e-015 90 90   XYZ
    dof rx
    limits (0.0 90.0)
  end
  begin
     id 23
     name lthumb
     direction 0.707107 -6.34905e-011 0.707107   
     length 0.871712   
     axis -90 45 2.85299e-015   XYZ
    dof rx rz
    limits (-45.0 45.0)
           (-45.0 45.0)
  end
  begin
     id 24 
     name rclavicle
     direction -0.885098 0.45949 0.0739604   
     length 2.9478  
     axis 0 0 0   XYZ 
    dof ry rz
    limits (-10.0 20.0)
           (-20.0 0.0)
  end
  begin
     id 25 
     name rhumerus
     direction -1 -4.4898e-011 -2.61739e-027  
     length 4.52172   
     axis -180 30 90   XYZ
    dof rx ry rz
    limits (-90.0 60.0)
           (-90.0 90.0)
           (-90.0 90.0)
  end
  begin
     id 26 
     name rradius
     direction -1 -4.48945e-011 9.02552e-028   
     length 2.8914   
     axis -180 30 90   XYZ
    dof rx
    limits (-10.0 170.0)
  end
  begin
     id 27 
     name rwrist
     direction -1 -4.49018e-011 1.58672e-027   
     length 1.4457   
     axis -1.65735e-015 -90 -90   XYZ
    dof ry
    limits (-180.0 0.0)
  end
  begin
     id 28
     name rhand
     direction -1 -4.48825e-011 3.17344e-027   
     length 0.680541   
     axis -2.02492e-015 -90 -90   XYZ
    dof rx rz
    limits (-90.0 90.0)
           (-45.0 45.0)
  end
  begin
     id 29
     name rfingers
     direction -1 -4.49067e-011 6.34687e-027   
     length 0.54867   
     axis -4.04985e-015 -90 -90   XYZ
    dof rx
    limits (0.0 90.0)
  end
  begin
     id 30
     name rthumb
     direction -0.707107 -6.34833e-011 0.707107   
     length 0.787783   
     axis -90 -45 -2.85299e-015   XYZ
    dof rx rz
    limits (-45.0 45.0)
           (-45.0 45.0)
  end
:hierarchy
  begin
    root lhipjoint rhipjoint lowerback
    lhipjoint lfemur
    lfemur ltibia
    ltibia lfoot
    lfoot ltoes
    rhipjoint rfemur
    rfemur rtibia
    rtibia rfoot
    rfoot rtoes
    lowerback upperback
    upperback thorax
    thorax lowerneck lclavicle rclavicle
    lowerneck upperneck
    upperneck head
    lclavicle lhumerus
    lhumerus lradius
    lradius lwrist
    lwrist lhand lthumb
    lhand lfingers
    rclavicle rhumerus
    rhumerus rradius
    rradius rwrist
    rwrist rhand rthumb
    rhand rfingers
  end

#!OML:ASF E:\emotionWalksFemale\Project 1\Capture day 1\Session 1\Female1.ASF
:FULLY-SPECIFIED
:DEGREES
172
root 9.25422 11.8577 14.1773 -141.637 -4.59875 -179.718
lowerback 44.7985 1.75042 2.06771
upperback 1.73499 2.1842 0.813275
thorax -19.4781 0.227378 -1.13019
lowerneck -18.5595 -4.75484 -10.978
upperneck -23.1726 -7.68931 9.82465
head -3.42702 -5.34956 4.85913
rclavicle -8.74653e-015 -1.03368e-014
rhumerus 46.2313 25.6521 -5.10441
rradius 69.6365
rwrist 8.8586
rhand -20.9909 -48.0201
rfingers 7.12502
rthumb 5.38318 -77.9318
lclavicle -8.74653e-015 -1.03368e-014
lhumerus 37.8323 -24.8317 28.7268
lradius 72.2363
lwrist 1.58758
lhand -25.7904 -70.425
lfingers 7.12502
lthumb 0.748136 -40.4466
rfemur -86.592 -1.77081 32.2666
rtibia 99.3043
rfoot -37.4173 -22.1348
rtoes -3.85044
lfemur -89.665 4.99107 -27.4871
ltibia 96.3812
lfoot -41.8738 0.388932
ltoes -20.8389
173
root 9.25605 11.8973 14.1072 -141.53 -4.64806 -179.864
lowerback 44.2616 1.62582 2.04618
upperback 1.75233 2.01931 0.762442
thorax -19.2815 0.177926 -1.09016
lowerneck -19.5995 -4.7138 -11.3982
upperneck -22.2002 -7.38809 10.042
head -2.9883 -5.11827 4.93148
rclavicle -1.19271e-014 1.98785e-015
rhumerus 45.6865 25.0999 -6.21102
rradius 70.6551
rwrist 8.08434
rhand -21.5921 -48.7013
rfingers 7.12502
rthumb 4.80267 -78.6269
lclavicle -1.19271e-014 1.98785e-015
lhumerus 36.8652 -24.1468 30.6674
lradius 72.7041
lwrist 1.4407
lhand -24.8582 -70.0814
lfingers 7.12502
lthumb 1.64854 -40.1081
rfemur -86.2176 -1.69931 31.9865
rtibia 99.097
rfoot -37.0818 -22.3001
rtoes -4.18636
lfemur -89.1565 4.62639 -27.2953
ltibia 96.063
lfoot -41.6802 0.914883
ltoes -22.446
174
root 9.2564 11.9335 14.0298 -141.619 -4.64651 -179.837
lowerback 44.0564 1.56659 2.18512
upperback 1.64441 2.01616 0.614938
thorax -19.34 0.170731 -1.33394
lowerneck -19.0187 -4.68205 -11.0096
upperneck -22.4168 -7.44957 9.85956
head -3.14488 -5.16411 4.83285
rclavicle -1.27222e-014 -3.45885e-014
rhumerus 44.746 24.6325 -7.44391
rradius 71.7076
rwrist 7.42033
rhand -21.2998 -48.8963
rfingers 7.12502
rthumb 5.08489 -78.8152
lclavicle -1.27222e-014 -3.45885e-014
lhumerus 36.3092 -23.94 31.8267
lradius 73.1242
lwrist 1.50096
lhand -24.3248 -69.9703
lfingers 7.12502
lthumb 2.1637 -40.0016
rfemur -85.5215 -1.4687 31.7728
rtibia 98.8553
rfoot -36.7147 -22.6888
rtoes -4.89382
lfemur -88.4759 4.3949 -26.8975
ltibia 95.8193
lfoot -41.89 1.76648
ltoes -24.471
175
root 9.25937 11.9658 13.9491 -141.735 -4.72555 -179.802
lowerback 43.6913 1.5032 2.33872
upperback 1.61549 2.0157 0.549689
thorax -19.2449 0.167091 -1.48953
lowerneck -18.9678 -4.74926 -10.9187
upperneck -22.3015 -7.54703 9.76802
head -3.11395 -5.20143 4.7781
rclavicle 2.22639e-014 6.36111e-015
rhumerus 43.9164 24.1073 -8.5191
rradius 72.7803
rwrist 6.85371
rhand -20.5285 -48.9038
rfingers 7.12502
rthumb 5.82958 -78.8036
lclavicle 2.22639e-014 6.36111e-015
lhumerus 35.9025 -23.7596 32.4612
lradius 73.3937
lwrist 1.56722
lhand -24.3877 -70.0154
lfingers 7.12502
lthumb 2.10289 -40.0461
rfemur -84.7908 -1.14593 31.4874
rtibia 98.5851
rfoot -36.4339 -22.9539
rtoes -4.58914
lfemur -87.7729 4.12135 -26.403
ltibia 95.599
lfoot -41.9583 2.11274
ltoes -24.4126
176
root 9.26571 12.0097 13.8665 -141.796 -4.78384 -179.789
lowerback 43.2411 1.57432 2.35759
upperback 1.65391 2.12996 0.609321
thorax -19.0394 0.224782 -1.48817
lowerneck -18.6615 -4.79222 -11.0947
upperneck -22.5289 -7.60627 9.76737
head -3.2162 -5.22356 4.82434
rclavicle -3.02153e-014 -8.34896e-015
rhumerus 43.0049 23.5377 -9.37837
rradius 73.8663
rwrist 6.17084
rhand -20.2974 -48.624
rfingers 7.12502
rthumb 6.0527 -78.5175
lclavicle -3.02153e-014 -8.34896e-015
lhumerus 35.5025 -23.3575 33.4133
lradius 73.5565
lwrist 1.50802
lhand -24.1696 -70.1483
lfingers 7.12502
lthumb 2.31359 -40.1811
rfemur -83.9719 -0.856343 31.2259
rtibia 98.1823
rfoot -36.3501 -22.9602
rtoes -4.80373
lfemur -87.0842 4.05288 -26.0591
ltibia 95.3236
lfoot -41.7132 1.69643
ltoes -22.4587
177
root 9.26834 12.0468 13.7931 -141.519 -4.69176 -179.835
lowerback 42.4188 1.55861 2.36442
upperback 1.55871 2.12721 0.449513
thorax -18.8685 0.246439 -1.67429
lowerneck -17.823 -4.69846 -11.3235
upperneck -23.1753 -7.48029 10.0907
head -3.5138 -5.17098 5.03046
rclavicle -5.08889e-014 -1.59028e-015
rhumerus 42.1057 23.1875 -10.2359
rradius 74.8862
rwrist 5.53099
rhand -20.4632 -48.3769
rfingers 7.12502
rthumb 5.8926 -78.2749
lclavicle -5.08889e-014 -1.59028e-015
lhumerus 35.1651 -23.1112 33.8141
lradius 73.477
lwrist 1.79998
lhand -24.1473 -69.912
lfingers 7.12502
lthumb 2.33509 -39.9451
rfemur -83.603 -0.646204 30.9545
rtibia 97.7514
rfoot -35.9772 -23.1194
rtoes -7.50329
lfemur -86.8759 3.97311 -25.9557
ltibia 95.056
lfoot -41.2562 1.7934
ltoes -22.5654
